<svg xmlns="http://www.w3.org/2000/svg" width="80" height="29" fill="none"><path fill="#fff" fill-rule="evenodd" d="M38.948 2.093c.322.13.403 1.09 0 1.212a.97.97 0 0 1 0-1.212m1.999 0a.85.85 0 0 1 .316.474c-.05.23-.216.347-.158.685h-.316c-.014-.51-.101-.864.158-1.16m-3.686.686c-.249.288.07.848-.369.895-.048-.321-.083-.655-.316-.79.123-.435.468-.49.685-.105m6.056.052c-.127.26-.175.598-.316.843-.596-.309-.022-1.822.316-.843m-13.639.632c-.331.212-.268-.246-.58-.21-.07.656-.441 1.457.158 1.79-.055.54.374 1 .211 1.318-.742-.185-.23-1.309-.895-1.58a4.45 4.45 0 0 1 .369-1.898.65.65 0 0 1 .737.58m20.852 2.95c-.166-.321.254-.737.21-1.264q.234-.215.421-.474a5.3 5.3 0 0 0-.21-1.317c-.179.015-.324.063-.316.263-.068-.073-.25-.032-.317-.105.05-.452.754-.822 1-.317-.165.526.197.833.212 1.212.022.624-.637 1.049-.58 1.844-.256-.067-.246.307-.421.158M33.838 5.149c-.335-.086-.166-.677-.58-.685a.5.5 0 0 1-.157.37.39.39 0 0 1-.421-.159c-.012-.38.267-.47.526-.58-.021-.136-.157-.158-.157-.315.612-.161 1.037 1.005.79 1.37m13.058-1.372a.43.43 0 0 1-.105.317c.157.25.557.19.526.526-.03.336-.564.379-.578-.158-.285.102-.238.535-.422.738-.11-.03-.17-.11-.263-.158.217-.485.217-1.187.842-1.265m-23.38 2.53a7.2 7.2 0 0 0 2.159 1.527 1.3 1.3 0 0 1-.105.422 10.7 10.7 0 0 1-1.896-1.212c-.209-.196-.466-.506-.158-.737m32.913.105a.76.76 0 0 1 .264.369 5.4 5.4 0 0 1-2.318 1.528c.04-.199-.065-.252-.053-.422a5.2 5.2 0 0 0 2.107-1.475m-33.703.211a9.2 9.2 0 0 0 3.528 2.319q-.03.166-.106.315c-1.434-.3-2.597-1.334-3.633-2.212a1.4 1.4 0 0 1 .21-.42m34.546.102c.726.488-.46 1.049-1 1.422-.715.568-1.54.98-2.423 1.212a.52.52 0 0 0-.158-.316 9.6 9.6 0 0 0 3.581-2.318m-19.642.475c.618-.039.65.509 1.103.632-.02.26-.454.094-.631.056-.254.079-.27.398-.685.316.572-.528-.386-.211-.42-.685.456-.061.692.103 1 .053-.11-.134-.357-.134-.369-.37m4.794-.003c.016.226-.248.173-.263.369.13.04.519-.11.843-.053-.007.095.064.11.055.211-.159.088-.452.04-.633.105-.165.156.276.213.106.369-.308.11-.418-.187-.633-.316a.76.76 0 0 1-.579 0c.376-.221.556-.638 1.104-.685m-19.43.686c.63.504 1.32.93 2.054 1.264-.05.11-.11.209-.158.316a7.2 7.2 0 0 1-2.054-1.264c.021-.137.157-.159.158-.316m34.018.052a.77.77 0 0 1 .263.37c-.67.436-1.329.883-2.054 1.263-.066-.09-.178-.138-.158-.316.591-.497 1.375-.803 1.95-1.317m-34.021.843c.577.213.91.67 1.527.843.026.166-.162.12-.105.316a6.5 6.5 0 0 1-1.527-.895c.022-.1.113-.133.105-.264M42 11.047h.526v-.474H42zm.895 0c.281-.034.7.07.895-.055-.33-.284-.574-.655-.895-.949zm-2.107 0h.843c-.035-.334.069-.807-.055-1.053-.21.404-.584.644-.79 1.053m1.214-.79h.526v-.58H42zm-.369-1.422c.24.061.215 0 .474.105.14.156-.196.155-.105.422.055.12.331.02.474.055.12-.055.02-.331.055-.474q.244.023.474.105c.262.055-.21.18-.158.368.38.542.822 1.037 1.317 1.475q-.236.49-.422 1.001H41c-.11-.383-.37-.612-.475-1 .318-.736 1.191-.916 1.104-2.055m15.379-.002c.095.106.167.232.21.369a9 9 0 0 1-1.527.79c-.046-.11-.16-.155-.158-.316a9.7 9.7 0 0 0 1.475-.842m-19.588 2.16h.527v-.42h-.527a.7.7 0 0 0 0 .42m.895 0h.79a6.5 6.5 0 0 0-.79-.843zm-2.106 0h.79c-.035-.316.07-.773-.055-1-.197.383-.572.586-.737 1m1.159-1.264v.474h.578v-.474c-.213-.055-.289.02-.578 0m-.37-.843a.6.6 0 0 1 .475.105c.27.055-.206.146-.105.369.072.12.366.02.527.055.137-.073-.026-.447.105-.527.21 0 .316.105.526.105-.078.114-.263.123-.263.317.26.688.835 1.06 1.263 1.58-.072.401-.377.57-.474.948h-2.63c-.08-.406-.488-.587-.474-.948.024-.663 1.295-.96 1.053-2.002M17.83 10.89c.012-.198.197-.22.21-.421-.116-.13-.174-.317-.369-.369-.156.288-.228.697.158.79m-.159-1.264c.358.15.479.54.685.843a6.3 6.3 0 0 0-.527 1.054c-.28-.23-.363-.655-.632-.896a3.2 3.2 0 0 1 .474-1.001m44.658 1.422c-.052-.263.269-.152.263-.369-.17-.11-.132-.429-.368-.474a.515.515 0 0 0 .105.843m-.055-1.317c.285.26.502.586.632.949-.137.39-.532.522-.58 1-.294-.248-.358-.729-.632-1 .083-.427.387-.634.58-.949" clip-rule="evenodd"/><path fill="#fff" fill-rule="evenodd" d="M18.304 12.63a2.48 2.48 0 0 0 .895-2.213 2.4 2.4 0 0 0-.896 2.212m1.103-2.688a2.625 2.625 0 0 1-1.369 3.162 2.7 2.7 0 0 1 1.372-3.159M61.8 12.682a2.54 2.54 0 0 0-1-2.055c.085.933.355 1.682 1 2.055m-1.316-2.634c1.116.413 1.806 1.526 1.528 3.161-1.095-.442-1.707-1.616-1.528-3.161M17.406 12.26a1.92 1.92 0 0 0-1.264-1.527 2.01 2.01 0 0 0 1.264 1.528m-1.633-1.948c1.26.213 1.877 1.072 1.949 2.476-1.072-.404-1.907-1.043-1.949-2.476m46.817 2.264c.697-.41 1.337-.876 1.422-1.896a2.45 2.45 0 0 0-1.422 1.896m1.632-2.264c.24 1.577-.861 2.215-1.843 2.74a2.31 2.31 0 0 1 1.843-2.74m-38.968.261c.32-.03.414.18.79.21.038.162-.091.156-.055.317a6 6 0 0 1-.788-.263c-.044-.149.075-.137.055-.263m29.331-.001c.142.033.206.145.21.316a5 5 0 0 1-.737.263c.013-.154-.12-.161-.106-.315.23-.034.447-.124.633-.264m-29.651.369c.356.066.599.245.948.317a.3.3 0 0 0-.055.21c-.373.166-.645-.188-1-.21-.056-.197.13-.15.105-.317m30.284.317q-.422.245-.895.368c.026-.165-.162-.12-.105-.316.39.023.803-.515 1-.055" clip-rule="evenodd"/><path fill="#fff" fill-rule="evenodd" d="M15.883 12.207a.87.87 0 0 1-.316-.421c-.194.033-.524-.069-.632.055.294.305.434.62.948.369m-.105-.738c.207.42.515.782.895 1.054-.396.113-1.003.015-1.422.105a5 5 0 0 1-.79-.948c.195-.315.835-.183 1.317-.21m48.445.946c.54.1.689-.19.843-.475a.683.683 0 0 0-.843.474m1.317-.686c-.177.423-.447.8-.79 1.105-.473-.042-.916-.294-1.37-.056.284-.42.732-.674.949-1.159.406-.08.825-.043 1.211.106m-25.856 2.587h.632v-.473h-.633zm.948 0c.281-.035.701.069.895-.056-.294-.32-.598-.63-.895-.948zm-2.107 0h.843c-.034-.317.07-.773-.055-1.002-.303.3-.569.637-.79 1.002m1.158-.79h.633v-.58h-.63zm-.315-1.37c.126.032.382-.066.421.055.266.04-.165.146-.106.316.09.12.403.02.58.056.118-.04.02-.296.055-.422.234-.042.316.07.526.055-.594.829.73 1.296 1 1.942-.062.41-.31.636-.421 1h-2.685a9 9 0 0 0-.527-.948c.284-.787 1.21-.931 1.159-2.055" clip-rule="evenodd"/><path fill="#fff" fill-rule="evenodd" d="M14.828 13.578c.789.45 2.041.072 2.58-.37-.85-.197-2.125-.15-2.58.37m3.159-.422c-.656.769-2.617 1.312-3.633.475.531-1.06 2.628-1.168 3.633-.475m44.71.212c.383.548 1.96.854 2.527.263a3.68 3.68 0 0 0-2.527-.263m3.054.263c-.734 1.094-3.094.598-3.634-.316.994-.669 2.91-.442 3.634.316m-4.108 1.527c.078-.466.438-.65.684-.948-.137-.126-.329-.299-.527-.211a2.2 2.2 0 0 1-.157.474c-.07-.055-.196-.05-.211-.158-.024-.27.125-.366.157-.58a.35.35 0 0 0-.42-.21c.004.577.168 1.143.474 1.633m1.158-.737c-.68.18-1.007.712-1 1.58-.38-.295-1.476-2.55-.632-2.845.197-.069.624.18.737.474a1.13 1.13 0 0 1 .895.79M11.616 15c.123.596.805 1.66 1.684 1.633.69-.023 1.182-.972.527-1.37-.392.227-.859 1.027-1.37.633.332-.176.732-.287.843-.685-.478-.066-.912.166-1.211.105a.3.3 0 0 0-.055-.21c.353-.262 1.159-.072 1.633-.211a3.5 3.5 0 0 1-.685-.527c.638-.176.888.477 1.316.684.184-1.594-2.45-.997-2.685-.055m-.369-.055c.315-.535 1.317-1.439 2.423-1.212.666.137 1.405.973.736 1.634a1.128 1.128 0 0 1-.736 1.527c-1.225.237-2.216-1.084-2.423-1.949m54.506-.469c-.008.165-.123.386 0 .526.473-.103.804-.801 1.37-.474a2.5 2.5 0 0 0-.738.474c.644.024 1.325.01 1.633.37-.1.005-.037.173-.158.157a1.87 1.87 0 0 0-1.159-.158c.291.236.497.56.896.685-.11.05-.209.107-.317.158a10 10 0 0 1-1.103-.895c-.773.405-.157 1.266.474 1.317.92.074 1.556-.762 1.79-1.265-.32-.928-1.714-1.7-2.685-.895m3.001 1.053c-.376 1.054-2.062 2.078-3.001 1.104a1.24 1.24 0 0 1-.264-.579c-.03-.22.13-.427.106-.685-.023-.258-.271-.46-.21-.79.073-.397.646-.732 1.103-.79a2.06 2.06 0 0 1 2.263 1.738" clip-rule="evenodd"/><path fill="#fff" fill-rule="evenodd" d="M16.462 17.423c.972-.073 1.879-2.226.79-2.53-.667-.184-.79.351-.843.896.242.356.645.55.843.949-.093.047-.087.194-.21.21a4.3 4.3 0 0 0-.633-.685c-.174.343.116.704 0 .896h-.263a5.6 5.6 0 0 1-.055-1.16c-.3-.02-.298.488-.632.264.194-.491.688-.682.737-1.318-1.516-.029-1.269 2.59.264 2.477m.42-2.845c.43-.24 1.011.32 1.104.579.43 1.17-.594 2.576-1.527 2.634-1.982.125-2.262-3.786.158-3.055.094-.048.154-.128.264-.158m46.659.633a.646.646 0 0 0-1.053.106c-.47.923.364 2.31 1.369 2.263 1.302-.055 1.353-2.674.055-2.476-.034.625.798.91.579 1.37-.258-.055-.252-.38-.474-.474-.06.45.101 1.12-.263 1.264-.122-.16-.02-.544-.053-.79-.331.11-.415.462-.685.632.047-.17-.173-.072-.158-.21.374-.482 1.117-.84.685-1.686m.055-.316c1.8-1.184 2.363 3.63-.263 2.95-.868-.023-1.918-2.412-.843-3.108a.904.904 0 0 1 1.104.158" clip-rule="evenodd"/><path fill="#fff" fill-rule="evenodd" d="M43.158 18.793c.236.08.378.254.633.316.027-.2.383-.578.158-.685-.272.115-.527.246-.79.369m-6.898.316c.181-.214.322-.14.474-.369q-.063-.015-.055-.104c-.305.04-.526-.28-.737-.159q.111.339.316.633m3.739-2.213c-.369-.14-.697-.32-1.054-.474-.677.883-.957 2.167-1.948 2.739 1.8-.413 4.269-.15 5.95-.053-1.054-.49-1.145-1.945-1.948-2.687a3.3 3.3 0 0 1-1 .475m13.638-.37c-3.665-.5-8.971-2.114-12.111-.21.355.74.778 1.445 1.264 2.107 2.648-1.248 7.086-.39 9.216.21 1.137.308 2.301.502 3.476.58 2.41.143 5.142.208 6.74-1a20 20 0 0 1-1.21-2.003c-2.401.789-4.922.65-7.373.317m-34.546-.474a19 19 0 0 0-1.37 2.001 10.6 10.6 0 0 0 6.004 1.104 44 44 0 0 0 4.687-.684c2.699-.529 5.888-1.23 8.9-.055.392-.766.93-1.387 1.263-2.213-5.85-2.583-13.245 2.197-19.484-.157m38.916-2.108c.402.408 1.02 1.01.579 1.791.65-.04 1.29-.182 1.895-.421-.595-1.072-.312-3.024-1.474-3.53-.304.75-.68 1.428-1 2.16m-28.962-2.155a5.7 5.7 0 0 1-1 .263 5.7 5.7 0 0 0-.158 1.104c-.152.846-.8 1.137-.738 1.95a4.1 4.1 0 0 0 1.738 0c.465-.08 1.044-.145 1.212-.475-.497-.497-.032-1.14.157-1.686-.396-.393-.827-.754-1.21-1.16m-8.113-.054c-1.07.546-.828 2.405-1.37 3.478a4.5 4.5 0 0 0 1.896.368 1.166 1.166 0 0 1 .632-1.633c-.392-.732-.737-1.51-1.159-2.212M49.79 13.1c.186.367.328.757.421 1.159-.05.213-.345.18-.263.526a6.54 6.54 0 0 0 2.896.422c.206-.538-.298-.892-.474-1.317a15 15 0 0 1-.369-1.791c-.276-.147-.578-.265-.842-.421-.393.537-1.053.808-1.37 1.422m-3.366-4.053c-.269.25-.594.43-.947.527.183 1.684.377 3.62 2.423 3.267.195-.233.573-.448.579-.896a.634.634 0 0 0-.79-.685c-.393.116-.181.697-.633.843-.854-.379-.433-2.179-.631-3.055m-13.64 2.949c.087-1.175-1.486-.935-1.212.21.082.345.418.36.527.633 2.083.34 2.245-1.683 2.528-3.319-.446-.064-.663-.358-1.054-.474-.032 1.058.357 2.753-.79 2.95m6.635-2.95c-.12-.038.049-.364-.158-.316-1.23-.122-2.685-.018-4.002-.055.097.289.438.335.632.527-.114.15-.15.377-.263.527-.286.04-.426-.065-.685-.056.037.335-.088.508-.055.843 1.38 2.396 2.708 4.82 5.214 5.953 2.423-1.245 3.647-3.69 5.108-5.9-.041-.276-.087-.545-.106-.843q-.37 0-.737.056-.09-.295-.21-.58c.236-.12.45-.28.632-.474-1.218-.116-2.647-.022-3.95-.055-.14.055-.105.282-.211.369-.306-.116-.425-.418-.632-.633a1.2 1.2 0 0 1-.58.633m-7.266-.264c-.11-.024-.345-.386-.369-.157.138.547.14 1.685.474 2.212.442.034.58.367.843.58.193-1.16.295-2.996-.685-3.32a1.44 1.44 0 0 1-.263.685m8.583-.369c.195-.033.525.069.632-.052-.296-.005-.51-.366-.737-.264.092.049.117.166.105.316m-2.054 0h.685c-.07-.165.157-.292 0-.369-.22.132-.48.221-.685.37m.948.211c.185-.218.328-.468.422-.738.133.29.2.644.474.79a1.5 1.5 0 0 0-.579-1.264c-.14.335-.5.728-.316 1.211M47 7.093a6.1 6.1 0 0 1-2.422 2.319c1.294-.2 1.972-1.013 2.843-1.634a1.4 1.4 0 0 0-.105-.685zM33.732 8.625a4.65 4.65 0 0 0 1.685.791 10.6 10.6 0 0 1-1.843-1.58c-.296-.332-.43-.849-.895-.738-.332.762.587 1.222 1.053 1.527m9.847-1c-.009-1.096-2.568-.646-2.633.21.413.667 2.642.764 2.633-.21m-7.109-.056c-.25.982 2.164.96 2.58.264-.275-.803-2.34-1.208-2.58-.264m3.687-.368c.184.202.305.467.474.684.347-.377-.169-.71-.316-1.054.055.232-.178.174-.158.369m-.948.369c.075.117.11.276.263.316.073-.264.219-.501.422-.684-.084-.11-.048-.338-.21-.37a2.2 2.2 0 0 1-.475.738m1.687-.366c.317-.214.766-.842.527-1.264a1.35 1.35 0 0 0-.527 1.264m-1.738.056a1.25 1.25 0 0 0-.684-1.318c.032.636.214 1.121.684 1.318m1.422-.422c.094-.339.547-.939.158-1.264-.184.25-.415.911-.158 1.264m-1.053-.055c.117-.46.124-1.145-.316-1.317a1.39 1.39 0 0 0 .316 1.317m.527.055c.208-.303.267-1.25-.056-1.475a1.66 1.66 0 0 0 .056 1.475m1.421 0c0 .055.025.134.055.055a2.28 2.28 0 0 1 1.843-.055c.166.25.472.43.475.79 0 .322-.365.529-.264.685h1.369a32 32 0 0 1 .158-3.635c-3.371.035-6.88-.07-10.164.055.267 1.151-.022 2.768.106 3.583h1.475c-1.049-1.032.922-2.106 1.948-1.37a2 2 0 0 1-.158-1.264c.255.026.382.18.632.21.024-.31.049-.618.264-.737.27.045.293.338.526.422a.57.57 0 0 1 .316-.527q.227.291.369.632c.297-.68.607-.571.685.21.22-.058.334-.227.579-.263a1.32 1.32 0 0 1-.211 1.212m-3.581-2.582c1.44-.035 3.02.07 4.371-.052-1.196-.336-3.26-.424-4.371.052m10.58-2.007c-.97-.177-1.38.408-1.79.79-.2.187-.474.285-.58.422a6 6 0 0 0-.316.843 3.2 3.2 0 0 0-.422 1.053c-.087.889.103 1.907-.052 2.95a1.99 1.99 0 0 0 1.158-1.58 3 3 0 0 0 1.739-.316c.036.123.175.142.21.264-.316.034-.405.296-.684.368q.064.56.21 1.105c.417-.081.445-1.07.896-.633-.415.345-.17.824-.211 1.317-.014.176-.169.337-.21.527-.03.5-.12.995-.264 1.475 1.343.72.276 2.994-1.264 2.37a8.7 8.7 0 0 1-1.264 1.16c.883.135 2.1.11 3.107.263-.008-1.896 1.64-2.302 2.422-3.423.285-.407.283-.876.632-1.316.473.376-.263 1.153-.42 1.58.898.646 2.748.786 4.212.527.24-.761-.276-1.187-.579-1.58.616-.406 1.054.75 1.054 1.211 0 .605-.492 1.088-.79 1.791-.142.336-.144.726-.263 1-.187.428-.773.578-.632 1.105.883.202 2.555.36 3.16.055-.303-.934-.056-1.467.316-2.212a39 39 0 0 0 1.369-3.162c.237.184.254.589.579.686-.123-1.26.476-2.037.316-3.003-.036-.214-.207-.397-.264-.632-.055-.221.006-.478-.055-.685-.201-.72-.985-1.052-1.632-1.58-.29-.237-.523-.671-.895-.896-1.335-.807-3.292-.7-5.056-.896.199 1.83-.752 3.616-1.632 4.215a1.5 1.5 0 0 1-1 .316c-.296-.052-.888-.62-.37-.896.189.174.166.39.37.474.447.183.832-.331 1.052-.58.128-.141.36-.22.474-.368a5.24 5.24 0 0 0 .843-2.529c.022-1.85-1.907-1.63-2.37-.474.047-.17-.136-.11-.158-.21-.01-.293.283-.28.264-.58-.455-.055-.986-.033-1.212-.316M34.624 4.938a7 7 0 0 0-.626-1.422c-.178-.253-.445-.326-.685-.527-.173-.147-.28-.41-.369-.474-.925-.67-1.545.026-2.58 0-.126.224.49.59 0 .737-.307-.966-1.994-1.23-2.263-.055.023.283-.03.571 0 .843.166 1.48 1.134 3.156 2.528 3.16.177-.05-.027-.483.263-.421.331.635-.259.972-.79.843-1.218-.296-2.569-2.668-2.262-4.478-2.344.13-4.25.036-5.477 1.16-.187.17-.272.37-.474.525a5.8 5.8 0 0 0-1.421 1.105 2.7 2.7 0 0 0-.264 1.053c-.067.366-.237.718-.263 1.002-.104 1.125.483 1.662.316 2.844.295-.126.254-.589.58-.684.364.585.362 1.31.736 2.001.068.126.253.217.317.37.265.63.847 1.622.842 2.054-.003.318-.267.561-.21.895.889.205 2.578.284 3.265-.157-.016-.368-.489-.53-.685-.896-.147-.276-.26-.812-.474-1.264-.322-.684-.69-1.1-.632-1.791.032-.373.513-1.508 1-1.001-.306.398-.862.92-.578 1.58 1.545.119 3.325.078 4.37-.474a4 4 0 0 1-.737-1.527c.132.008.166-.083.263-.106.534 2.05 2.696 2.626 3.107 4.638.78.124 2.098-.11 3.055-.158-.435-.123-.737-.99-1.317-1.104-.144-.03-.373.106-.526.105-1.34-.004-1.983-1.747-.738-2.423-.252-.387-.126-.927-.21-1.423-.046-.27-.248-.478-.264-.738-.013-.227.139-.437.106-.632-.05-.29-.4-.39-.369-.632.48-.296.602.514.895.738.136-.39.207-.8.211-1.212-.172-.197-.533-.205-.632-.474.48-.294 1.187.38 2 .263a.4.4 0 0 1-.054.422c.31.291.732 1.017 1.053.948-.127-1.214.176-2.283 0-3.213m4.108-3.161c-.056.201-.264.224-.37.421-.217.409 0 1.067-.368 1.265-.27-.569-.525-1.39-1.264-1.317-.672.302-.386 1.719-.684 2.107h.79a8.63 8.63 0 0 1 5.95-.316c.378.118.666.43 1.159.316-.414-.314-.02-1.866-.79-2.107q-.28.06-.527.21c-.386.293-.366.927-.843 1.104.121-1.453-.876-2.208-1.474-1.104-.178.331-.02.922-.422.949a1.416 1.416 0 0 0-1.159-1.528m4.95.316c.215.295.26.76.475 1.054a2.7 2.7 0 0 1 .948-.79c-.304-.153-.364-.549-.527-.843a1.84 1.84 0 0 1-.895.58m-8.794.264c.442.106.637.452.948.685.157-.3.26-.654.422-.949a4.3 4.3 0 0 1-.948-.58c-.08.308-.224.595-.422.844m6.688-.737q.225.395.527.737c.144-.276.497-.346.684-.58-.248-.172-.341-.5-.526-.737a1.06 1.06 0 0 1-.685.58m-4.37.21q.395.225.737.527c.024-.362.324-.449.421-.737a2 2 0 0 1-.737-.58c-.06.344-.306.502-.422.79m2.16-.263c.266.154.386.458.684.579.114-.29.406-.402.579-.633A3.6 3.6 0 0 1 40.002.46a4.1 4.1 0 0 1-.632 1.104m8.896 7.009c-.252-.024-.188.268-.421.263a4.5 4.5 0 0 0-.316-.684q-.245.257-.527.474c-.119.755-.378 2.138.052 2.845a.87.87 0 0 1 .74-.58q.326-1.141.474-2.319m-6.163 7.007c3.292-1.25 7.268-.038 10.27.422 2.797.428 5.947.694 8.846-.264.455.897 1.029 1.676 1.528 2.53-2.867 2.47-9.485 1.2-13.06.262a17.6 17.6 0 0 0-5.108-.21q-.289.736-.684 1.422c-2.29-.43-5.608-.648-7.794 0-.213-.49-.5-.905-.684-1.422-4.091-.412-7.376 1.014-11.218 1.211-2.67.137-5.183-.11-6.953-1.316a30 30 0 0 1 1.684-2.688c5.65 2.558 12.794-1.92 18.958 0a19.3 19.3 0 0 1-3.16-4.53 3.97 3.97 0 0 1-1.103 2.055c.335.56 1.094.696 1.263 1.422-.312.47-1.038.21-1.632.263-.737.068-1.593.32-2.262.158-.071-.595-.066-1.27-.474-1.527a1.18 1.18 0 0 0 0 1.37c-.546.75-2.172.855-3.422.79-.888-.5.06-1.302.264-1.897.173-.507.123-.977.263-1.423a13.2 13.2 0 0 1-2.896.106c.191.462.26 1.004.579 1.685.291.623 1.235 1.19.579 1.844-.99.16-2.876.376-3.686-.106-.248-.531.271-.92.055-1.422-.386.033-.371.471-.633.632.087.323.473.55.264 1-.902.06-3.921-.288-2.37-1.369.103-.976.107-1.733.474-2.37.265-.461.913-.713.79-1.317-.296-.055-.35.552-.685.632-.293-.386-.13-.812-.157-1.212-.047-.649-.323-1.214-.37-1.738.013-.485.102-.965.264-1.422.1-.503.011-.804.211-1.159.322-.573 1.045-.964 1.685-1.475.209-.166.35-.426.527-.58a4.96 4.96 0 0 1 2.468-1c1.163-.093 2.204.207 3.16-.263.216-.106.39-.464.684-.58a1.46 1.46 0 0 1 1.37.211c.978-.158 2.088-.77 3.054-.158q.684.493 1.264 1.105c.214.285.292.749.474 1 1.934-.035.579-1.572-.369-1.79.46-.332.43-1.152.843-1.529.382.337.807.62 1.264.843.645-.18.65-1 1.104-1.37.465.255.623.817 1.158 1.002a2.33 2.33 0 0 0 1.054-1.37c.472-.147.394.175.527.422q.335.5.737.948c.706-.049.835-.676 1.264-1.001.542.279.441 1.256 1.053 1.37.512.095 1.038-.56 1.317-.79.283 0 .356.206.316.526.182.344.386.669.579 1.001-.582.295-1.18.576-1.422 1.212.156.406.59.533 1.104.58.375-.942 1.118-1.516 1.79-2.16.968-.458 2.087 0 2.896.21.612-.448 1.942-.332 2.107.421 1.853.378 4.213 0 5.794 1.318.194.161.313.448.527.632.632.543 1.4.822 1.685 1.475q.088.417.105.843c.178.527.285 1.077.316 1.633-.034.386-.314.841-.369 1.37-.055.551.21 1.222-.263 1.527-.28-.107-.265-.507-.579-.58-.181.704.533.829.843 1.423s.177 1.305.369 2.055c.09.356.551.582.474 1a4.7 4.7 0 0 1-2.739.58c-.032-.658.387-1.395-.368-1.686-.36.63.567 1.258-.158 1.634-.37.19-2.577.158-3.107.052-1.45-.288-.169-1.345.105-1.896.325-.653.31-1.215.633-1.739a7.8 7.8 0 0 1-2.791-.158c-.422 1.415 1.33 2.183.526 3.32-.6.137-3.386-.005-3.528-.738-.055-.276.244-.392.263-.632.024-.302-.207-.432-.263-.843-.5.272-.264 1.28-.631 1.685-1.16-.23-2.664-.11-3.687-.474-.012-.909.956-.836 1.264-1.423a3.4 3.4 0 0 1-1.104-2.054c-1.02 1.56-1.913 3.249-3.264 4.478" clip-rule="evenodd"/><path fill="#fff" d="m22.697 17.265.185-.014.091 1.258.604-.045.011.153-.788.059zm2.317.56-.497.055.05.462.555-.059.015.139-.723.077-.137-1.281.694-.074.015.138-.527.055.044.405.497-.055zm1.206-.739-.426.068-.024-.153 1.035-.166.025.153-.428.069.2 1.246-.183.03zm2.86-.429-.425.068-.024-.153 1.036-.166.024.154-.428.069.2 1.246-.183.029zm1.494-.39q.168-.057.343-.082a.58.58 0 0 1 .425.055.35.35 0 0 1 .149.25.374.374 0 0 1-.212.394v.006a.36.36 0 0 1 .247.253q.067.19.162.37l-.187.026a1.7 1.7 0 0 1-.14-.317c-.07-.188-.158-.249-.323-.231l-.171.025.089.607-.181.026zm.276.61.186-.027c.193-.028.3-.152.275-.312-.026-.182-.169-.241-.36-.213a.8.8 0 0 0-.177.043zm1.548-.88.095.836c.036.314.19.431.38.41.206-.024.326-.178.29-.487l-.095-.836.184-.02.093.822c.05.433-.157.635-.462.67-.289.033-.524-.105-.575-.544l-.095-.828zm1.988.143-.429-.037.013-.155 1.046.09-.014.156-.431-.038-.11 1.257-.185-.015zm1.556 0-.113.583.672.13.114-.582.181.036-.27 1.391-.182-.035.127-.653-.672-.13-.127.652-.182-.035.27-1.392zm7.64.046q.165-.06.34-.091a.58.58 0 0 1 .412.045.38.38 0 0 1 .177.27.4.4 0 0 1-.056.318.6.6 0 0 1-.398.23.6.6 0 0 1-.147.014l.1.558-.18.033zm.3.638a.6.6 0 0 0 .152-.012c.221-.04.331-.17.297-.359s-.18-.252-.378-.216a1 1 0 0 0-.166.046zm1.673-.838q.173-.038.35-.043a.6.6 0 0 1 .416.105.36.36 0 0 1 .12.266.374.374 0 0 1-.256.367v.006a.36.36 0 0 1 .217.28q.045.198.119.386l-.19.006a1.7 1.7 0 0 1-.103-.335c-.048-.195-.128-.266-.294-.267l-.172.006.02.613-.183.007zm.203.637.187-.006c.195-.006.316-.117.311-.279-.006-.183-.14-.258-.334-.252a.8.8 0 0 0-.18.022zm2.53.117-.549.011.011.511.614-.012.003.153-.798.017-.03-1.417.767-.016.004.154-.583.012.01.448.548-.012zm1.22.898-.281-1.465.198.025.13.718a9 9 0 0 1 .084.545h.004c.06-.158.14-.328.227-.504l.327-.662.193.024-.682 1.342zm1.899.195-.22.412-.187-.033.721-1.31.218.037.228 1.48-.192-.033-.072-.466zm.483-.06-.067-.427q-.017-.143-.026-.267h-.006a3 3 0 0 1-.113.24l-.208.38zm.866-.829-.184 1.406.184.024.183-1.406zm1.141.217.184.022-.147 1.255.6.07-.017.153-.785-.092z"/><mask id="a" width="80" height="7" x="0" y="23" maskUnits="userSpaceOnUse" style="mask-type:luminance"><path fill="#fff" d="M80 23.014H0V29h80z"/></mask><g fill="#fff" mask="url(#a)"><path d="M3.157 28.277c0 .57.833.285.833.505 0 .11-.087.11-.22.11-.395 0-.614-.022-1.118-.022s-.724.022-1.118.022c-.132 0-.221-.022-.221-.11 0-.221.833.065.833-.505v-4.869a2.36 2.36 0 0 0-1.905 1.426c-.088.198-.131.307-.175.307-.066 0-.066-.044-.066-.066a2 2 0 0 1 .088-.462l.263-1.38c0-.044.022-.153.088-.153.044 0 .065.044.11.066.044.043.131.065.307.065H4.47a.7.7 0 0 0 .31-.066c.044-.044.065-.066.11-.066.066 0 .088.11.088.154l.263 1.38q.07.225.088.46a.058.058 0 0 1-.066.066c-.044 0-.088-.11-.175-.307a2.36 2.36 0 0 0-1.91-1.424v4.869z"/><path d="M6.928 25.975v2.281c0 .57.702.286.702.505 0 .11-.044.11-.176.11-.285 0-.504-.022-1.009-.022s-.723.022-1.008.022c-.131 0-.175-.022-.175-.11 0-.221.701.066.701-.505v-4.471c0-.57-.701-.285-.701-.505 0-.11.044-.11.175-.11.285 0 .505.021 1.008.021.504 0 .724-.021 1.01-.021.13 0 .175.021.175.11 0 .22-.702-.066-.702.505v1.97H9.34v-1.974c0-.57-.701-.285-.701-.504 0-.11.044-.11.175-.11.285 0 .504.021 1.008.021s.724-.022 1.01-.022c.13 0 .175.022.175.11 0 .221-.702-.065-.702.505v4.472c0 .57.702.285.702.505 0 .11-.044.11-.176.11-.285 0-.504-.022-1.009-.022s-.723.022-1.008.022c-.131 0-.175-.022-.175-.11 0-.221.7.065.7-.505v-2.279zm4.977-2.171c0-.57-.702-.285-.702-.505 0-.11.044-.11.176-.11.284 0 .504.022 1.008.022 1.841 0 2.455-.022 3.07-.022l.394 1.557q.029.11.044.22c0 .066-.022.089-.066.089-.11 0-.065-.221-.482-.79-.504-.724-1.228-.878-2.212-.878h-.242v2.456h.176c.723 0 1.27-.284 1.27-1.118 0-.131.043-.154.11-.154.066 0 .11.044.11.154v2.5c0 .132-.044.154-.11.154-.067 0-.11-.022-.11-.154 0-.877-.549-1.162-1.27-1.162h-.176v2.17c0 .308.198.461.702.461a2.42 2.42 0 0 0 2.453-1.842c.045-.131.066-.175.132-.175.065 0 .065.043.065.087q.002.122-.022.242l-.35 1.885c-.702 0-1.403-.022-3.486-.022-.505 0-.724.022-1.008.022-.132 0-.176-.022-.176-.11 0-.22.702.066.702-.505zm9.405 4.473c0 .57.833.285.833.505 0 .11-.088.11-.22.11-.395 0-.615-.022-1.119-.022s-.723.022-1.118.022c-.131 0-.22-.022-.22-.11 0-.221.832.065.832-.505v-4.869a2.36 2.36 0 0 0-1.904 1.426c-.088.198-.132.307-.176.307-.066 0-.066-.043-.066-.065q.019-.236.088-.46l.263-1.381c0-.044.022-.154.088-.154.044 0 .066.045.11.066.044.044.132.066.307.066h3.618q.16 0 .306-.068c.044-.044.066-.066.11-.066.066 0 .088.11.088.154l.263 1.38q.07.225.088.46a.06.06 0 0 1-.016.05.06.06 0 0 1-.05.016c-.044 0-.087-.11-.175-.307a2.36 2.36 0 0 0-1.907-1.425z"/><path d="M24.16 23.804c0-.57-.701-.285-.701-.505 0-.11.044-.11.175-.11.286 0 .505.022 1.01.022.504 0 .723-.022 1.008-.022.13 0 .175.022.175.11 0 .22-.701-.066-.701.505v4.471c0 .57.701.285.701.505 0 .11-.044.11-.176.11-.284 0-.504-.022-1.008-.022s-.723.022-1.009.022c-.13 0-.175-.022-.175-.11 0-.22.701.066.701-.505zm5.305 3.662 1.798-4.277h.395c.504 0 .723-.022 1.008-.022.132 0 .176.022.176.11 0 .221-.701-.065-.701.505v4.472c0 .57.7.285.7.504 0 .11-.043.11-.175.11-.285 0-.504-.021-1.008-.021-.505 0-.724.022-1.009.022-.131 0-.175-.022-.175-.11 0-.221.701.065.701-.505v-4.34h-.022l-1.951 4.78c-.044.067-.066.177-.132.177-.043 0-.065-.088-.11-.176l-1.907-4.715h-.022v3.508c0 .702.241 1.053.57 1.163.22.066.307.043.307.153 0 .066-.044.088-.176.088-.24 0-.46-.022-.789-.022-.526 0-.745.022-.877.022-.11 0-.197 0-.197-.088 0-.131.088-.087.307-.153.592-.176.658-.812.658-1.822v-2.828c0-.746-.856-.482-.856-.68 0-.11.045-.11.176-.11.285 0 .504.022 1.008.022h.527zm4.231-3.662c0-.57-.701-.285-.701-.505 0-.11.044-.11.175-.11.285 0 .505.022 1.009.022 1.841 0 2.455-.022 3.07-.022l.394 1.557q.03.11.044.22c0 .066-.022.089-.066.089-.11 0-.065-.221-.482-.79-.504-.724-1.228-.877-2.215-.877h-.24v2.455h.175c.723 0 1.27-.284 1.27-1.118 0-.131.043-.154.11-.154.066 0 .11.044.11.154v2.5c0 .132-.044.154-.11.154-.067 0-.11-.022-.11-.154 0-.877-.549-1.162-1.27-1.162h-.176v2.17c0 .308.198.461.702.461a2.42 2.42 0 0 0 2.455-1.842c.044-.131.066-.175.131-.175.066 0 .066.043.066.087a1.2 1.2 0 0 1-.022.242l-.351 1.885c-.702 0-1.403-.022-3.486-.022-.504 0-.723.022-1.008.022-.132 0-.176-.022-.176-.11 0-.22.702.066.702-.505zm4.672 2.763a.1.1 0 0 1 .087-.11c.088 0 .088.065.132.24.153 1.031.636 2.084 1.798 2.084.899 0 1.293-.505 1.293-1.075 0-1.689-3.31-1.008-3.31-3.07a1.773 1.773 0 0 1 1.885-1.601c.79 0 1.096.33 1.447.33.263 0 .153-.262.307-.262.065 0 .087.043.087.13.11 1.163.154 1.755.154 1.865 0 .088-.044.11-.088.11-.066 0-.088-.11-.11-.197-.307-.943-.79-1.755-1.798-1.755-.68 0-1.075.373-1.075.9 0 1.535 3.312 1.03 3.312 3.048 0 .878-.68 1.777-2.127 1.777a9 9 0 0 1-1.49-.307c-.373 0-.242.285-.395.285-.044 0-.088-.022-.088-.11zm12.561-.527a3.006 3.006 0 0 1-3.004 2.965 3.003 3.003 0 0 1-3.003-2.964 3.005 3.005 0 0 1 5.113-2.099c.562.555.883 1.309.894 2.099m-3.003-2.763c-1.096 0-1.908.877-1.908 2.764s.812 2.763 1.908 2.763 1.907-.877 1.907-2.763c0-1.887-.811-2.764-1.907-2.764m3.924.526c0-.57-.702-.285-.702-.505 0-.11.045-.11.176-.11.285 0 .504.022 1.009.022 1.841 0 2.455-.022 3.004-.022l.394 1.557q.03.11.044.22c0 .066-.022.089-.066.089-.11 0-.065-.221-.482-.79-.504-.724-1.228-.877-2.214-.877h-.175v2.455h.175c.724 0 1.27-.284 1.27-1.118 0-.131.043-.154.11-.154s.11.044.11.154v2.5c0 .132-.044.154-.11.154s-.11-.022-.11-.154c0-.877-.549-1.162-1.27-1.162h-.175v2.215c0 .57.701.285.701.505 0 .11-.044.11-.175.11-.285 0-.505-.022-1.01-.022-.504 0-.723.022-1.007.022-.132 0-.176-.022-.176-.11 0-.221.702.065.702-.505zm6.732 0c0-.57-.701-.285-.701-.505 0-.11.044-.11.175-.11.285 0 .505.022 1.01.022.504 0 .723-.022 1.007-.022.132 0 .176.022.176.11 0 .22-.702-.066-.702.505v4.471c0 .57.702.285.702.505 0 .11-.044.11-.176.11-.284 0-.504-.022-1.008-.022s-.723.022-1.009.022c-.131 0-.175-.022-.175-.11 0-.22.701.066.701-.505zm6.554.768c0-.702-.307-1.053-.635-1.163-.221-.066-.307-.044-.307-.154 0-.065.044-.087.175-.087.307 0 .526.022.877.022s.57-.022.877-.022c.131 0 .175.022.175.087 0 .11-.11.088-.306.154-.307.11-.636.439-.636 1.163v4.298a.1.1 0 0 1-.067.104.1.1 0 0 1-.043.006.2.2 0 0 1-.176-.087l-3.552-4.716h-.022v3.289c0 .702.307 1.053.636 1.163.22.065.307.043.307.153 0 .066-.044.088-.176.088-.307 0-.526-.022-.877-.022-.35 0-.57.022-.876.022-.132 0-.176-.022-.176-.088 0-.11.11-.088.307-.153.307-.11.636-.439.636-1.163v-3.575c-.483-.701-.943-.46-.943-.613 0-.088.066-.11.175-.11.198 0 .373.021.636.021h.768l3.158 4.233h.022z"/><path d="M66.759 23.804c0-.57-.702-.285-.702-.505 0-.11.044-.11.176-.11.284 0 .504.022 1.008.022.352 0 .724-.022 1.184-.022 1.973 0 3.201 1.162 3.201 2.87a2.665 2.665 0 0 1-2.85 2.83c-.57 0-1.053-.022-1.535-.022-.504 0-.724.022-1.009.022-.131 0-.175-.022-.175-.11 0-.222.701.065.701-.505zm1.008 4.121c0 .526.307.746.922.746.942 0 1.863-.439 1.863-2.566 0-1.6-.636-2.741-1.908-2.741h-.855v4.561zm4.975-4.121c0-.57-.701-.285-.701-.505 0-.11.044-.11.175-.11.285 0 .505.022 1.009.022s.723-.022 1.008-.022c.131 0 .175.022.175.11 0 .22-.7-.066-.7.505v4.471c0 .57.7.285.7.505 0 .11-.044.11-.175.11-.285 0-.504-.022-1.008-.022s-.724.022-1.008.022c-.132 0-.176-.022-.176-.11 0-.22.701.066.701-.505z"/><path d="M75.837 26.83a4.2 4.2 0 0 0-.331 1.118c0 .834.701.636.701.834 0 .088-.043.088-.131.088-.176 0-.373-.023-.943-.023-.285 0-.548.023-.855.023-.087 0-.11-.044-.11-.11 0-.154.331-.067.57-.264.32-.35.567-.76.724-1.206 1.008-2.5 1.14-2.808 1.14-2.895 0-.066-.198-.221-.198-.307 0-.132.131-.11.373-.593.175-.373.13-.482.24-.482s.111.285.593 1.38l1.776 3.948c.22.482.614.24.614.438 0 .088-.066.11-.132.11-.331 0-.658-.022-1.008-.022-.331 0-.658.022-1.008.022-.088 0-.132-.022-.132-.11 0-.22.592.044.592-.417a3 3 0 0 0-.13-.46l-.483-1.097zm.855-2.26-.79 2.062h1.689z"/></g></svg>