<svg xmlns="http://www.w3.org/2000/svg" width="107" height="29" fill="none"><path fill="#fff" d="M60.615 9.774c0-3.115.054-6.015.214-8.7l-8.185 1.557v.752l.802.108c.589.053.963.268 1.177.59.214.376.375.913.482 1.719.107 1.557.214 5.102.16 10.687 0 5.532-.053 9.022-.16 10.365 2.942.644 5.243.913 6.955.913 3.21 0 5.724-.913 7.543-2.793 1.82-1.826 2.782-4.404 2.782-7.572q0-3.786-2.086-6.283c-1.391-1.665-3.157-2.47-5.243-2.47-1.391 0-2.836.375-4.44 1.127m.16 16.54c-.106-1.718-.213-6.873-.213-15.305.481-.16 1.123-.268 1.926-.268 1.284 0 2.3.644 3.05 1.987.748 1.342 1.123 2.954 1.123 4.994 0 2.524-.428 4.565-1.284 6.284-.856 1.664-1.926 2.524-3.264 2.524-.428-.108-.856-.162-1.337-.215M21.936 1.612H.535v1.074l1.123.108c.856.16 1.445.483 1.82.966q.561.806.641 2.578c.428 5.8.428 11.224 0 16.219q-.16 1.772-.642 2.577c-.374.537-.963.86-1.819.967l-1.123.161v1.074h13.803v-1.074l-1.445-.107a2.6 2.6 0 0 1-1.819-.967q-.561-.805-.642-2.578a99 99 0 0 1-.267-7.357l2.889.054c1.551.053 2.621 1.235 3.156 3.598h1.07V10.15h-1.07c-.535 2.31-1.551 3.49-3.156 3.544l-2.89.054c0-4.833.108-8.27.268-10.365h4.227c2.996 0 5.029 1.934 6.206 5.8l1.284-.376zm-2.515 16.54c0 2.794.803 5.103 2.354 6.929s3.852 2.685 6.741 2.685c2.89 0 5.243-.913 6.955-2.793 1.712-1.826 2.515-4.135 2.515-6.928 0-2.792-.803-5.101-2.354-6.927S31.779 8.43 28.89 8.43c-2.89 0-5.243.913-6.955 2.793-1.712 1.826-2.515 4.135-2.515 6.928m11.93-6.121c.643 1.557.91 3.598.91 6.068 0 5.693-1.177 8.485-3.477 8.485q-1.766 0-2.729-2.416c-.642-1.611-.91-3.652-.91-6.069 0-5.639 1.178-8.431 3.478-8.431 1.177-.054 2.087.752 2.729 2.363m45.208 13.05c1.766 1.772 4.013 2.685 6.688 2.685 1.658 0 3.103-.322 4.387-1.02 1.284-.645 2.3-1.45 2.996-2.417l-.535-.645c-1.177.913-2.515 1.343-4.066 1.343-2.14 0-3.799-.698-4.922-2.148-1.177-1.45-1.712-3.276-1.605-5.64H90.95c0-2.577-.642-4.671-1.98-6.336q-2.006-2.417-5.617-2.417c-2.996 0-5.297.967-6.955 2.847s-2.461 4.188-2.461 6.927c0 2.793.856 5.048 2.621 6.82m3.96-13.48c.588-1.289 1.337-1.933 2.353-1.933 1.605 0 2.408 2.04 2.408 6.176l-5.671.107c.053-1.611.32-3.061.91-4.35m24.823-2.148c-1.444-.645-3.263-1.02-5.457-1.02-2.247 0-4.012.59-5.35 1.718-1.337 1.128-2.033 2.524-2.033 4.189 0 1.45.428 2.578 1.23 3.383.803.806 2.087 1.504 3.746 2.095 1.498.537 2.568 1.074 3.103 1.557.535.537.856 1.128.856 1.933 0 .752-.268 1.45-.856 1.988-.535.59-1.284.859-2.247.859-2.354 0-4.12-1.719-5.35-5.156l-.91.269.214 5.37q2.889 1.128 6.42 1.128c2.461 0 4.334-.537 5.725-1.665 1.391-1.074 2.086-2.632 2.086-4.565 0-1.289-.321-2.363-1.016-3.168s-1.819-1.504-3.424-2.149c-1.766-.644-2.996-1.235-3.638-1.772s-.963-1.181-.963-1.987c0-.805.214-1.45.695-1.987.482-.537 1.07-.752 1.82-.752 2.139 0 3.691 1.558 4.654 4.619l.909-.269zm-51.467-.483c-.749-.376-1.551-.537-2.46-.537-.91 0-1.82.375-2.836 1.127-1.017.752-1.766 1.773-2.354 3.169l.053-4.296-8.132 1.61v.752l.803.054c1.016.108 1.605.913 1.712 2.363q.48 4.995 0 10.634c-.107 1.45-.696 2.201-1.712 2.362l-.803.108v1.02h11.342v-1.02l-1.444-.108c-1.017-.107-1.605-.913-1.712-2.363a55 55 0 0 1-.107-9.881q.48-.806 2.086-.967c1.07-.107 2.3.215 3.585.967z"/></svg>