<svg width="100" height="100" viewBox="0 0 100 100" fill="none" xmlns="http://www.w3.org/2000/svg">
<path d="M54.7643 82.5351L56.5309 76.0208C57.4679 72.5654 56.9939 68.8793 55.2132 65.7734C53.4324 62.6675 50.4908 60.3961 47.0354 59.4591L27.4924 54.1594C24.037 53.2224 20.3509 53.6964 17.245 55.4772C14.1391 57.2579 11.8678 60.1996 10.9307 63.655L9.16417 70.1693" stroke="#DEB94A" stroke-width="5" stroke-linecap="round" stroke-linejoin="round"/>
<path d="M70.5565 24.3229C73.1539 25.8048 75.1857 28.1073 76.333 30.8689C77.4804 33.6305 77.6782 36.6949 76.8955 39.5811C76.1128 42.4673 74.3939 45.0119 72.0086 46.8155C69.6233 48.6191 66.7066 49.5796 63.7164 49.5463" stroke="#DEB94A" stroke-width="5" stroke-linecap="round" stroke-linejoin="round"/>
<path d="M74.3121 87.8361L76.0786 81.3218C76.8593 78.4345 76.6589 75.3697 75.509 72.6086C74.3591 69.8474 72.3248 67.5464 69.7254 66.0668" stroke="#DEB94A" stroke-width="5" stroke-linecap="round" stroke-linejoin="round"/>
<path d="M40.799 43.7791C47.9946 45.7304 55.4095 41.4791 57.3608 34.2836C59.312 27.088 55.0608 19.6731 47.8652 17.7218C40.6697 15.7705 33.2548 20.0218 31.3035 27.2173C29.3522 34.4129 33.6035 41.8278 40.799 43.7791Z" stroke="#DEB94A" stroke-width="5" stroke-linecap="round" stroke-linejoin="round"/>
</svg>
