<svg width="97" height="97" viewBox="0 0 97 97" fill="none" xmlns="http://www.w3.org/2000/svg">
<path d="M30.3668 33.9593L25.4095 32.9056C23.2182 32.4398 21.3017 31.1226 20.0816 29.2438C18.8614 27.365 18.4376 25.0784 18.9034 22.8871C19.3692 20.6959 20.6864 18.7793 22.5652 17.5592C24.444 16.3391 26.7306 15.9153 28.9219 16.3811L33.8792 17.4348" stroke="#EAB308" stroke-width="5" stroke-linecap="round" stroke-linejoin="round"/>
<path d="M70.0261 42.3892L74.9835 43.4429C77.1747 43.9086 79.4613 43.4849 81.3401 42.2647C83.219 41.0446 84.5361 39.1281 85.0019 36.9368C85.4677 34.7455 85.0439 32.459 83.8238 30.5801C82.6037 28.7013 80.6871 27.3841 78.4959 26.9183L73.5385 25.8646" stroke="#EAB308" stroke-width="5" stroke-linecap="round" stroke-linejoin="round"/>
<path d="M14.6245 75.5192L67.5038 86.759" stroke="#EAB308" stroke-width="5" stroke-linecap="round" stroke-linejoin="round"/>
<path d="M39.6106 55.4756L37.9668 63.2091C37.5804 65.0268 35.7251 66.1177 33.911 66.5266C29.6319 67.4823 25.776 71.8095 24.5397 77.6262" stroke="#EAB308" stroke-width="5" stroke-linecap="round" stroke-linejoin="round"/>
<path d="M52.8305 58.2856L51.1867 66.0191C50.8003 67.8368 52.0516 69.5881 53.5424 70.6995C57.0629 73.313 58.8254 78.8345 57.589 84.6511" stroke="#EAB308" stroke-width="5" stroke-linecap="round" stroke-linejoin="round"/>
<path d="M74.9441 19.2548L35.2846 10.825L30.3672 33.9597C29.2493 39.2188 30.2664 44.7067 33.1947 49.2159C36.1231 53.7252 40.7228 56.8865 45.9819 58.0043C51.2411 59.1222 56.729 58.1051 61.2382 55.1768C65.7475 52.2484 68.9088 47.6487 70.0266 42.3895L74.9441 19.2548Z" stroke="#EAB308" stroke-width="5" stroke-linecap="round" stroke-linejoin="round"/>
</svg>
