<svg xmlns="http://www.w3.org/2000/svg" width="18" height="18" fill="none"><g clip-path="url(#a)"><path stroke="#fff" stroke-linecap="round" stroke-linejoin="round" stroke-width="1.5" d="M16.5 12.69v2.25a1.5 1.5 0 0 1-1.635 1.5 14.84 14.84 0 0 1-6.473-2.302 14.6 14.6 0 0 1-4.5-4.5A14.84 14.84 0 0 1 1.59 3.135 1.5 1.5 0 0 1 3.082 1.5h2.25a1.5 1.5 0 0 1 1.5 1.29 9.6 9.6 0 0 0 .525 2.108A1.5 1.5 0 0 1 7.02 6.48l-.953.953a12 12 0 0 0 4.5 4.5l.953-.953a1.5 1.5 0 0 1 1.582-.337c.68.253 1.388.43 2.108.525a1.5 1.5 0 0 1 1.29 1.522"/></g><defs><clipPath id="a"><path fill="#fff" d="M0 0h18v18H0z"/></clipPath></defs></svg>