<svg width="113" height="113" viewBox="0 0 113 113" fill="none" xmlns="http://www.w3.org/2000/svg">
<path d="M52.1259 90.3789L76.1468 37.4179C76.9431 35.6622 77.0592 33.6846 76.4695 31.9202C75.8797 30.1558 74.6325 28.7491 73.0021 28.0097L60.7076 22.4334C59.0773 21.6939 57.1973 21.6822 55.4814 22.4009C53.7655 23.1195 52.3541 24.5096 51.5577 26.2654L27.5369 79.2264" stroke="#EAB308" stroke-width="5" stroke-linecap="round" stroke-linejoin="round"/>
<path d="M85.4869 47.8537L36.3089 25.5486C32.9138 24.0088 28.8173 25.7244 27.159 29.3806L12.146 62.4812C10.4877 66.1374 11.8956 70.3497 15.2906 71.8895L64.4687 94.1946C67.8637 95.7344 71.9603 94.0188 73.6186 90.3626L88.6316 57.262C90.2899 53.6058 88.882 49.3936 85.4869 47.8537Z" stroke="#EAB308" stroke-width="5" stroke-linecap="round" stroke-linejoin="round"/>
</svg>
